<svg id="Capa_2" data-name="Capa 2" xmlns="http://www.w3.org/2000/svg" viewBox="0 0 1336.74 944.75"><defs><style>.cls-1{fill:none;stroke:#000;stroke-miterlimit:10;stroke-width:1.5px;}.cls-2{font-size:12px;font-family:MyriadPro-Regular, Myriad Pro;}.cls-3{letter-spacing:-0.02em;}.cls-4{letter-spacing:-0.01em;}.cls-5{letter-spacing:-0.01em;}.cls-6{letter-spacing:0em;}.cls-7{letter-spacing:-0.03em;}.cls-8{letter-spacing:-0.01em;}.cls-9{letter-spacing:0.01em;}.cls-10{letter-spacing:0em;}.cls-11{letter-spacing:-0.02em;}.cls-12{letter-spacing:0em;}.cls-13{letter-spacing:0em;}.cls-14{letter-spacing:0.01em;}.cls-15{letter-spacing:0em;}.cls-16{letter-spacing:-0.01em;}.cls-17{letter-spacing:-0.05em;}.cls-18{letter-spacing:0em;}.cls-19{letter-spacing:0.02em;}.cls-20{letter-spacing:0.02em;}.cls-21{letter-spacing:0em;}</style></defs><title>recortado floorplan-2-second</title><rect class="cls-1" x="0.75" y="0.75" width="743" height="752"/><rect class="cls-1" x="9.75" y="50.75" width="88" height="62"/><rect class="cls-1" x="122.75" y="55.08" width="88" height="54.67"/><rect class="cls-1" x="9.75" y="116.08" width="88" height="53.33"/><rect class="cls-1" x="122.75" y="112.75" width="88" height="56.67"/><rect class="cls-1" x="9.75" y="174.08" width="88" height="54"/><rect class="cls-1" x="122.75" y="174.08" width="88" height="54"/><rect class="cls-1" x="14.08" y="232.75" width="83.67" height="60.67"/><rect class="cls-1" x="122.75" y="232.75" width="84.67" height="72.67"/><rect class="cls-1" x="14.08" y="295.08" width="83.67" height="51"/><rect class="cls-1" x="122.75" y="307.08" width="84.67" height="80.33"/><rect class="cls-1" x="14.08" y="346.08" width="83.67" height="89.67"/><rect class="cls-1" x="122.75" y="389.08" width="84.67" height="81.67"/><rect class="cls-1" x="14.08" y="435.75" width="83.67" height="90"/><rect class="cls-1" x="122.75" y="470.75" width="84.67" height="55"/><rect class="cls-1" x="9.42" y="525.75" width="88.33" height="84.33"/><rect class="cls-1" x="122.75" y="525.75" width="62.33" height="84.33"/><polygon class="cls-1" points="59.08 610.08 9.42 610.08 9.42 718.75 64.75 718.75 64.75 634.08 59.08 633.75 59.08 610.08"/><rect class="cls-1" x="185.08" y="525.75" width="59" height="84.33"/><rect class="cls-1" x="66.75" y="634.08" width="88.33" height="84.67"/><rect class="cls-1" x="244.08" y="525.75" width="54.67" height="84.33"/><rect class="cls-1" x="155.08" y="634.08" width="53" height="84.67"/><rect class="cls-1" x="208.08" y="634.08" width="90.67" height="84.67"/><rect class="cls-1" x="298.75" y="525.75" width="103.5" height="84.33"/><rect class="cls-1" x="298.75" y="634.08" width="89.5" height="84.67"/><rect class="cls-1" x="402.25" y="525.75" width="52.5" height="84.33"/><rect class="cls-1" x="388.25" y="634.08" width="62" height="84.67"/><rect class="cls-1" x="454.75" y="525.75" width="54.5" height="84.33"/><rect class="cls-1" x="450.25" y="634.08" width="51" height="84.67"/><rect class="cls-1" x="509.25" y="525.75" width="75" height="84.33"/><rect class="cls-1" x="501.25" y="634.08" width="89" height="84.67"/><rect class="cls-1" x="584.25" y="556.25" width="38" height="53.83"/><rect class="cls-1" x="590.25" y="634.08" width="88.5" height="84.67"/><rect class="cls-1" x="584.25" y="525.75" width="38" height="30.5"/><rect class="cls-1" x="678.75" y="634.08" width="55" height="84.67"/><rect class="cls-1" x="645.75" y="525.75" width="88" height="84.33"/><rect class="cls-1" x="645.75" y="435.25" width="83.5" height="90.5"/><rect class="cls-1" x="535.75" y="470.75" width="86.5" height="55"/><rect class="cls-1" x="645.75" y="381.75" width="83.5" height="53.5"/><path class="cls-1" d="M469,406.5" transform="translate(66.75 -19.25)"/><rect class="cls-1" x="535.75" y="387.25" width="86.5" height="83.5"/><rect class="cls-1" x="645.75" y="291.75" width="83.5" height="90"/><rect class="cls-1" x="535.75" y="305.25" width="86.5" height="82"/><rect class="cls-1" x="645.75" y="230.25" width="83.5" height="61.5"/><rect class="cls-1" x="535.75" y="230.25" width="86.5" height="75"/><rect class="cls-1" x="645.75" y="169.25" width="87.5" height="61"/><rect class="cls-1" x="533.25" y="169.25" width="89" height="61"/><rect class="cls-1" x="645.75" y="110.75" width="87.5" height="58.5"/><rect class="cls-1" x="533.25" y="110.75" width="89" height="58.5"/><rect class="cls-1" x="645.75" y="51.25" width="87.5" height="59.5"/><rect class="cls-1" x="533.25" y="51.25" width="89" height="59.5"/><text class="cls-2" transform="translate(503.75 494.75)">file:///C:/<tspan class="cls-3" x="43.51" y="0">P</tspan><tspan class="cls-4" x="49.7" y="0">r</tspan><tspan x="53.51" y="0">o</tspan><tspan class="cls-5" x="60.09" y="0">g</tspan><tspan class="cls-6" x="66.73" y="0">r</tspan><tspan x="70.59" y="0">am%20</tspan><tspan class="cls-7" x="108.2" y="0">F</tspan><tspan x="113.73" y="0">iles/</tspan><tspan class="cls-8" x="134.25" y="0">A</tspan><tspan x="141.45" y="0">dobe/</tspan><tspan class="cls-8" x="171.77" y="0">A</tspan><tspan x="178.97" y="0">dobe%20</tspan><tspan class="cls-9" x="226.98" y="0">I</tspan><tspan x="229.96" y="0">llust</tspan><tspan class="cls-6" x="250.96" y="0">r</tspan><tspan class="cls-10" x="254.83" y="0">a</tspan><tspan class="cls-5" x="260.56" y="0">t</tspan><tspan x="264.46" y="0">or%20</tspan><tspan class="cls-11" x="296.79" y="0">C</tspan><tspan class="cls-12" x="303.5" y="0">C%202017/CEP/</tspan><tspan class="cls-13" x="384.38" y="0">e</tspan><tspan class="cls-14" x="390.35" y="0">x</tspan><tspan class="cls-5" x="396.07" y="0">t</tspan><tspan class="cls-15" x="399.96" y="0">ensions/</tspan><tspan class="cls-16" x="442.31" y="0">c</tspan><tspan x="447.62" y="0">om.adob</tspan><tspan class="cls-8" x="492.66" y="0">e</tspan><tspan x="498.53" y="0">.illust</tspan><tspan class="cls-6" x="524.82" y="0">r</tspan><tspan class="cls-10" x="528.69" y="0">a</tspan><tspan class="cls-5" x="534.42" y="0">t</tspan><tspan x="538.32" y="0">o</tspan><tspan class="cls-17" x="544.91" y="0">r</tspan><tspan class="cls-15" x="548.2" y="0">.On</tspan><tspan class="cls-18" x="565.61" y="0">B</tspan><tspan x="572.16" y="0">oa</tspan><tspan class="cls-4" x="584.54" y="0">r</tspan><tspan x="588.34" y="0">ding/offline/Sma</tspan><tspan class="cls-19" x="673.07" y="0">r</tspan><tspan class="cls-15" x="677.28" y="0">tExpo</tspan><tspan class="cls-19" x="706.13" y="0">r</tspan><tspan x="710.34" y="0">t/sma</tspan><tspan class="cls-19" x="738.97" y="0">r</tspan><tspan class="cls-6" x="743.18" y="0">t</tspan><tspan class="cls-20" x="747.1" y="0">-</tspan><tspan class="cls-13" x="751" y="0">e</tspan><tspan class="cls-15" x="756.97" y="0">xpo</tspan><tspan class="cls-19" x="775.94" y="0">r</tspan><tspan class="cls-21" x="780.16" y="0">t</tspan><tspan x="784.09" y="0">.</tspan><tspan class="cls-5" x="786.58" y="0">g</tspan><tspan class="cls-15" x="793.21" y="0">if</tspan></text><text class="cls-2" transform="translate(536.75 941.75)">file:///C:/<tspan class="cls-3" x="43.51" y="0">P</tspan><tspan class="cls-4" x="49.7" y="0">r</tspan><tspan x="53.51" y="0">o</tspan><tspan class="cls-5" x="60.09" y="0">g</tspan><tspan class="cls-6" x="66.73" y="0">r</tspan><tspan x="70.59" y="0">am%20</tspan><tspan class="cls-7" x="108.2" y="0">F</tspan><tspan x="113.73" y="0">iles/</tspan><tspan class="cls-8" x="134.25" y="0">A</tspan><tspan x="141.45" y="0">dobe/</tspan><tspan class="cls-8" x="171.77" y="0">A</tspan><tspan x="178.97" y="0">dobe%20</tspan><tspan class="cls-9" x="226.98" y="0">I</tspan><tspan x="229.96" y="0">llust</tspan><tspan class="cls-6" x="250.96" y="0">r</tspan><tspan class="cls-10" x="254.83" y="0">a</tspan><tspan class="cls-5" x="260.56" y="0">t</tspan><tspan x="264.46" y="0">or%20</tspan><tspan class="cls-11" x="296.79" y="0">C</tspan><tspan class="cls-12" x="303.5" y="0">C%202017/CEP/</tspan><tspan class="cls-13" x="384.38" y="0">e</tspan><tspan class="cls-14" x="390.35" y="0">x</tspan><tspan class="cls-5" x="396.07" y="0">t</tspan><tspan class="cls-15" x="399.96" y="0">ensions/</tspan><tspan class="cls-16" x="442.31" y="0">c</tspan><tspan x="447.62" y="0">om.adob</tspan><tspan class="cls-8" x="492.66" y="0">e</tspan><tspan x="498.53" y="0">.illust</tspan><tspan class="cls-6" x="524.82" y="0">r</tspan><tspan class="cls-10" x="528.69" y="0">a</tspan><tspan class="cls-5" x="534.42" y="0">t</tspan><tspan x="538.32" y="0">o</tspan><tspan class="cls-17" x="544.91" y="0">r</tspan><tspan class="cls-15" x="548.2" y="0">.On</tspan><tspan class="cls-18" x="565.61" y="0">B</tspan><tspan x="572.16" y="0">oa</tspan><tspan class="cls-4" x="584.54" y="0">r</tspan><tspan x="588.34" y="0">ding/offline/Sma</tspan><tspan class="cls-19" x="673.07" y="0">r</tspan><tspan class="cls-15" x="677.28" y="0">tExpo</tspan><tspan class="cls-19" x="706.13" y="0">r</tspan><tspan x="710.34" y="0">t/sma</tspan><tspan class="cls-19" x="738.97" y="0">r</tspan><tspan class="cls-6" x="743.18" y="0">t</tspan><tspan class="cls-20" x="747.1" y="0">-</tspan><tspan class="cls-13" x="751" y="0">e</tspan><tspan class="cls-15" x="756.97" y="0">xpo</tspan><tspan class="cls-19" x="775.94" y="0">r</tspan><tspan class="cls-21" x="780.16" y="0">t</tspan><tspan x="784.09" y="0">.</tspan><tspan class="cls-5" x="786.58" y="0">g</tspan><tspan class="cls-15" x="793.21" y="0">if</tspan></text></svg>