<svg id="99f63863-3506-44fe-af8a-f604e86a8215" data-name="Capa 2" xmlns="http://www.w3.org/2000/svg" viewBox="0 0 744.5 753.5"><defs><style>.\39 a1fa5ec-ff86-48b2-bb58-b2c32c82e050{fill:none;stroke:#000;stroke-miterlimit:10;stroke-width:1.5px;}</style></defs><title>V2floorplan-2-second</title><rect class="9a1fa5ec-ff86-48b2-bb58-b2c32c82e050" x="0.75" y="0.75" width="743" height="752"/><rect class="9a1fa5ec-ff86-48b2-bb58-b2c32c82e050" x="9.75" y="50.75" width="88" height="62"/><rect class="9a1fa5ec-ff86-48b2-bb58-b2c32c82e050" x="122.75" y="55.08" width="88" height="54.67"/><rect class="9a1fa5ec-ff86-48b2-bb58-b2c32c82e050" x="9.75" y="116.08" width="88" height="53.33"/><rect class="9a1fa5ec-ff86-48b2-bb58-b2c32c82e050" x="122.75" y="112.75" width="88" height="56.67"/><rect class="9a1fa5ec-ff86-48b2-bb58-b2c32c82e050" x="9.75" y="174.08" width="88" height="54"/><rect class="9a1fa5ec-ff86-48b2-bb58-b2c32c82e050" x="122.75" y="174.08" width="88" height="54"/><rect class="9a1fa5ec-ff86-48b2-bb58-b2c32c82e050" x="14.08" y="232.75" width="83.67" height="60.67"/><rect class="9a1fa5ec-ff86-48b2-bb58-b2c32c82e050" x="122.75" y="232.75" width="84.67" height="72.67"/><rect class="9a1fa5ec-ff86-48b2-bb58-b2c32c82e050" x="14.08" y="295.08" width="83.67" height="51"/><rect class="9a1fa5ec-ff86-48b2-bb58-b2c32c82e050" x="122.75" y="307.08" width="84.67" height="80.33"/><rect class="9a1fa5ec-ff86-48b2-bb58-b2c32c82e050" x="14.08" y="346.08" width="83.67" height="89.67"/><rect class="9a1fa5ec-ff86-48b2-bb58-b2c32c82e050" x="122.75" y="389.08" width="84.67" height="81.67"/><rect class="9a1fa5ec-ff86-48b2-bb58-b2c32c82e050" x="14.08" y="435.75" width="83.67" height="90"/><rect class="9a1fa5ec-ff86-48b2-bb58-b2c32c82e050" x="122.75" y="470.75" width="84.67" height="55"/><rect class="9a1fa5ec-ff86-48b2-bb58-b2c32c82e050" x="9.42" y="525.75" width="88.33" height="84.33"/><rect class="9a1fa5ec-ff86-48b2-bb58-b2c32c82e050" x="122.75" y="525.75" width="62.33" height="84.33"/><polygon class="9a1fa5ec-ff86-48b2-bb58-b2c32c82e050" points="59.08 610.08 9.42 610.08 9.42 718.75 64.75 718.75 64.75 634.08 59.08 633.75 59.08 610.08"/><rect class="9a1fa5ec-ff86-48b2-bb58-b2c32c82e050" x="185.08" y="525.75" width="59" height="84.33"/><rect class="9a1fa5ec-ff86-48b2-bb58-b2c32c82e050" x="66.75" y="634.08" width="88.33" height="84.67"/><rect class="9a1fa5ec-ff86-48b2-bb58-b2c32c82e050" x="244.08" y="525.75" width="54.67" height="84.33"/><rect class="9a1fa5ec-ff86-48b2-bb58-b2c32c82e050" x="155.08" y="634.08" width="53" height="84.67"/><rect class="9a1fa5ec-ff86-48b2-bb58-b2c32c82e050" x="208.08" y="634.08" width="90.67" height="84.67"/><rect class="9a1fa5ec-ff86-48b2-bb58-b2c32c82e050" x="298.75" y="525.75" width="103.5" height="84.33"/><rect class="9a1fa5ec-ff86-48b2-bb58-b2c32c82e050" x="298.75" y="634.08" width="89.5" height="84.67"/><rect class="9a1fa5ec-ff86-48b2-bb58-b2c32c82e050" x="402.25" y="525.75" width="52.5" height="84.33"/><rect class="9a1fa5ec-ff86-48b2-bb58-b2c32c82e050" x="388.25" y="634.08" width="62" height="84.67"/><rect class="9a1fa5ec-ff86-48b2-bb58-b2c32c82e050" x="454.75" y="525.75" width="54.5" height="84.33"/><rect class="9a1fa5ec-ff86-48b2-bb58-b2c32c82e050" x="450.25" y="634.08" width="51" height="84.67"/><rect class="9a1fa5ec-ff86-48b2-bb58-b2c32c82e050" x="509.25" y="525.75" width="75" height="84.33"/><rect class="9a1fa5ec-ff86-48b2-bb58-b2c32c82e050" x="501.25" y="634.08" width="89" height="84.67"/><rect class="9a1fa5ec-ff86-48b2-bb58-b2c32c82e050" x="584.25" y="556.25" width="38" height="53.83"/><rect class="9a1fa5ec-ff86-48b2-bb58-b2c32c82e050" x="590.25" y="634.08" width="88.5" height="84.67"/><rect class="9a1fa5ec-ff86-48b2-bb58-b2c32c82e050" x="584.25" y="525.75" width="38" height="30.5"/><rect class="9a1fa5ec-ff86-48b2-bb58-b2c32c82e050" x="678.75" y="634.08" width="55" height="84.67"/><rect class="9a1fa5ec-ff86-48b2-bb58-b2c32c82e050" x="645.75" y="525.75" width="88" height="84.33"/><rect class="9a1fa5ec-ff86-48b2-bb58-b2c32c82e050" x="645.75" y="435.25" width="83.5" height="90.5"/><rect class="9a1fa5ec-ff86-48b2-bb58-b2c32c82e050" x="535.75" y="470.75" width="86.5" height="55"/><rect class="9a1fa5ec-ff86-48b2-bb58-b2c32c82e050" x="645.75" y="381.75" width="83.5" height="53.5"/><path class="9a1fa5ec-ff86-48b2-bb58-b2c32c82e050" d="M469,405.5" transform="translate(66.75 -18.25)"/><rect class="9a1fa5ec-ff86-48b2-bb58-b2c32c82e050" x="535.75" y="387.25" width="86.5" height="83.5"/><rect class="9a1fa5ec-ff86-48b2-bb58-b2c32c82e050" x="645.75" y="291.75" width="83.5" height="90"/><rect class="9a1fa5ec-ff86-48b2-bb58-b2c32c82e050" x="535.75" y="305.25" width="86.5" height="82"/><rect class="9a1fa5ec-ff86-48b2-bb58-b2c32c82e050" x="645.75" y="230.25" width="83.5" height="61.5"/><rect class="9a1fa5ec-ff86-48b2-bb58-b2c32c82e050" x="535.75" y="230.25" width="86.5" height="75"/><rect class="9a1fa5ec-ff86-48b2-bb58-b2c32c82e050" x="645.75" y="169.25" width="87.5" height="61"/><rect class="9a1fa5ec-ff86-48b2-bb58-b2c32c82e050" x="533.25" y="169.25" width="89" height="61"/><rect class="9a1fa5ec-ff86-48b2-bb58-b2c32c82e050" x="645.75" y="110.75" width="87.5" height="58.5"/><rect class="9a1fa5ec-ff86-48b2-bb58-b2c32c82e050" x="533.25" y="110.75" width="89" height="58.5"/><rect class="9a1fa5ec-ff86-48b2-bb58-b2c32c82e050" x="646.75" y="51.25" width="87.5" height="59.5"/><rect class="9a1fa5ec-ff86-48b2-bb58-b2c32c82e050" x="533.25" y="51.25" width="89" height="59.5"/></svg>